<svg xmlns="http://www.w3.org/2000/svg" viewBox="0 0 525 45" class="css-1ehbwbq TheWest-Logo"><title>The West Australian</title><g fill="#000"><path d="M245.37 14.26l2.44-3.87h-6.58l.25-9.92-7.8 5.8v4.1H230l-2.43 3.88h6.1v23.92l-3.18 2.9.72.73 2.44-2.65 5.12 5.08 8.3-8.22-.73-.47-2.7 2.65-2.43-2.4V14.25M214.4 9.43s-6.35 5.8-8.54 5.8v16.2l5.6-1.7-10.72 14.98c2.68-3.86 8.04-4.82 11.95-2.17.96.73 1.7 1.45 2.18 2.42l9.5-7.25V20.78l-7.06 2.18 9.5-13.53c-4.38 3.62-10.47 3.14-12.43 0zm2.43 28.03c-4.63-1.45-9.75.24-12.44 4.1l8.53-12.08 3.9-1.2v9.18zm-.97-14.02l-2.2.73v-7.74c3.66.97 7.56-.48 9.76-3.62l-7.56 10.64zM200.5 33.6l-4.64 4.58-3.17-3.38v-6.28l10.72-10.88-7.8-7.97-10.5 10.4v16.66l-3.17 3.15.74.72 2.67-2.66 6.1 6.04 10.24-9.9-1.2-.5zm-7.8-15.72l4.86 4.84-4.87 4.83v-9.67zM181.7 35.28l-2.67 2.66-4.4-4.35V8.93l3.42-3.14-.73-.48-2.68 2.66-6.6-6.53-7.55 7.5V1.68c-1.47 1.44-3.42 2.4-5.62 2.4-3.4-.23-6.58-1.92-10.24-1.92-4.4 0-7.56 2.4-7.56 6.04 0 3.62 1.7 4.83 5.36 4.83-2.93-.97-3.66-1.45-3.66-2.9s1.47-1.93 3.42-1.93c3.17 0 5.12 1.45 10 1.45-14.15 11.36-18.54 20.54-12.7 28.27-5.84 2.9-13.16 1.45-17.3-3.86-4.64-6.05-4.15-15.23 5.36-23.7v27.8l8.3-7.5V1.46c-1.47 1.45-3.42 2.42-5.6 2.42-3.43-.24-6.36-1.94-10.26-1.94-4.4 0-7.56 2.42-7.56 6.05 0 3.62 1.7 4.83 5.37 4.83-2.92-.96-3.65-1.44-3.65-2.9 0-1.44 1.46-1.92 3.4-1.92 3.18 0 5.14 1.45 10 1.45-14.13 11.35-18.52 20.54-12.67 28.27l.98 1.45c5.85 6.77 18.3 7.74 24.63 0 6.1 7.25 19.75 7.74 25.6-1.2l7.07 7L182.2 36l-.5-.72zm-34.87-1.2c-4.63-6.05-4.14-15.23 5.37-23.7v27.8c-2.2-.96-4.15-2.4-5.37-4.1zm5.37 4.1l8.3-7.25V10.15l1.94-1.93 3.42 3.38v25.13c-3.9 2.66-9.03 3.15-13.66 1.45zM67.56 38.18l-2.44-2.65V15.7l3.17-3.13-.74-.5-2.68 2.67L60 9.9l-8.78 8.7V4.84c.24-1.7 1.46-3.14 3.17-3.62-2.45-.23-4.64.5-6.35 2.18-1.7-1.7-4.4-2.17-6.6-1.2 1.72.24 2.2 2.17 2.2 4.1v31.18l-.72.72 6.1 6.05 7.07-7-.73-.74-1.7 1.68-2.45-2.65v-15.7l4.4-4.36 1.7 1.7V37.2l-.73.72 6.08 6.04L70.73 36 70 35.3l-2.44 2.9zM39.27.48s-2.2 7.98-15.37 2.66C14.63-.73 7.07.97 3.9 3.64-2.44 9.17.24 14.73 3.66 16.9c-5.12 8.7-2.2 20.06 6.58 25.37 10.25 5.55 28.8 1.44 28.54-18.13-.97 8.46-8.78 14.5-17.32 13.53-1.46-.24-2.92-.48-4.14-1.2l8.78-8.47V11.6C34.63 13.3 39.27 9.18 39.27.48zM4.15 16.18C2.2 14.5.73 12.1 2.2 10.16 3.66 8.22 8.3 7 13.9 7.98c-3.9 1.93-7.3 4.6-9.75 8.2zm11.22 19.6C6.34 31.4 4.4 17.15 14.87 8.2c.74.24 1.47.48 2.2.96v27.3c-.73-.23-1.22-.47-1.7-.7zM92.68 17.64l-8.04-7.97-10.5 10.4v16.66L71 39.88l.73.72 2.7-2.66 6.1 6.04 10.23-9.9-.73-.73-4.63 4.6-3.17-3.4V28.3l10.48-10.64zm-10.97 9.9V17.9l4.9 4.84-4.9 4.83zM395.37 38.18l-2.44-2.4v-19.6l5.13 5.1 5.6-5.33-5.85-5.8-4.87 5.08-5.6-5.32-8.05 7.98.73.73 2.45-2.65 2.68 2.66V38.2l-2.93 2.9.5.73 2.67-2.65 5.12 5.08 8.04-7.98-.48-.72M426.84 38.18l-2.44-2.4v-20.3l2.68-2.67-.5-.72-2.67 2.66-4.38-4.1-3.66 3.62c-2.93 2.9-5.85 1.93-4.63.72.97-1.45.48-3.62-.98-4.6-1.46-.95-3.66-.47-4.63.98-.98 1.2-.73 3.14.48 4.1l6.35 6.53c-11.95 6.03-12.44 15.94-4.88 22.23l8.78-8.7v3.62l5.37 5.08 8.04-7.98-.48-.72-2.44 2.65zm-18.54-22c1.7.98 3.9.98 5.85 0l2.44 2.43v5.57l-8.3-7.98zm4.63 21.76c-6.1-6.28-2.43-14 .98-15.22l2.94 2.9v8.46l-3.9 3.86zM444.15 38.18l-2.68-2.65V4.83c.25-1.7 1.46-3.14 3.17-3.62-2.44-.23-4.63.5-6.34 2.18-1.7-1.7-4.4-2.17-6.58-1.2 1.7.24 2.2 2.17 2.2 4.1v31.66l-2.94 2.9.5.5 2.67-2.67 5.37 5.07 8.05-7.97-.5-.5-2.92 2.9zM305.13 35.28l-2.7 2.66-3.64-3.62-8.06-24.4c-1.47-5.33-3.17-7.02-3.42-9.92l-1.7 3.63c-2.44-1.7-5.37-2.42-8.3-2.42-2.92-.23-5.85.5-8.53 1.7-2.2.97-3.92 3.14-4.16 5.8 0 1.45.73 2.9 1.95 3.63-.74-.97-1-2.42-1-3.63 0-.72.26-4.1 6.6-4.1 4.15 0 8.05 2.4 10 6.28-5.85-1.2-11.7.24-13.4 3.38 1.94-1.93 8.77-.24 10.47 2.66L272.2 31.9H270c-4.87 0-10.48 2.9-10.48 7.5 0 3.38 3.66 5.07 7.07 4.83-2.7-.25-5.86-2.42-5.86-4.84.24-2.18 2.44-3.87 4.63-3.63 5.85 0 9.76 3.38 13.66 8.46l10.24-10.15.98 3.86 6.34 6.53 8.77-8.7-.24-.5zM282.7 11.84L285.85 22h-8.05l4.9-10.16zm2.43 25.14c-3.42-2.66-7.8-4.6-12.2-5.08l1.7-3.62h13.18l1.23 5.07-3.9 3.63zM346.84 9.43s-6.35 5.8-8.54 5.8v16.2l5.6-1.7L333.2 44.7c2.68-3.86 8.05-4.82 11.95-2.17.97.73 1.7 1.45 2.2 2.42l9.5-7.25V20.78l-7.07 2.18 9.5-13.53c-4.13 3.62-10.23 3.14-12.42 0zm2.43 28.03c-4.63-1.45-9.75.24-12.43 4.1l8.53-12.08 3.9-1.2v9.18zm-.73-14.02l-2.2.73v-7.74c3.67.97 7.57-.48 9.76-3.62l-7.56 10.64z"></path><path d="M376.6 38.18l-2.45-2.4V14.25h4.15l2.2-3.87h-6.35V.47l-7.8 5.8v4.1h-3.66l-2.2 3.88h5.85v23.92l-2.93 2.9.5.5 2.67-2.43 5.1 5.08 8.06-8.22-.48-.47M489.77 38.18l-2.44-2.4v-20.3L490 12.8l-.48-.72-2.68 2.66-4.88-4.83-3.66 3.63c-3.17 3.15-5.12 2.66-3.9 1.45.97-1.45.5-3.62-.98-4.6-1.46-.95-3.66-.47-4.63.98-1 1.2-.74 3.14.48 4.1l6.34 6.53c-11.95 6.03-12.44 15.94-4.88 22.23l8.78-8.7v3.62l5.37 5.08 8.04-7.98-.5-.72-2.67 2.65zm-18.54-22c1.7.98 3.9.98 5.6-.23l2.7 2.66v5.8l-8.3-8.2zm4.63 21.76c-6.1-6.28-2.44-14 .98-15.22l2.92 2.9v8.46l-3.9 3.86zM524.16 35.53l-2.44 2.65-3.17-2.9V15.95l3.17-3.14-.73-.47-2.45 2.4-5.13-4.82-8.78 8.7V15l-5.36-5.07-8.05 7.98.5.5 2.67-2.43 2.44 2.42.24 18.6-.73.73 6.34 6.53 7.3-7.25-.72-.5-1.7 1.7-2.94-3.14V19.82l3.9-4.1 2.44 2.65v20.06l5.86 5.8 8.05-7.98M334.4 35.53l-2.7 2.65-2.43-2.4v-20.3l-5.85-5.57-7.07 7.02.5.72 1.7-1.7 3.16 2.9v15.48l-4.13 3.86-2.44-2.4v-20.3l-5.86-5.57-7.8 7.98.5.73 2.67-2.65 2.93 2.9v19.33l-3.17 3.15.73.48 2.68-2.65 4.9 5.08 9-8.7v3.62l5.14 5.08 8.04-7.98"></path><path d="M461.47 38.18l-2.68-2.4v-20.3l2.67-2.9-.5-.5-2.67 2.66-4.88-4.83-8.05 7.98.5.73 2.67-2.65 2.44 2.42v19.8l-2.68 2.9.73.5 2.44-2.42 5.12 5.08 8.04-7.98-.5-.72M449.63 4.95L453.6.98l3.93 3.93-3.97 3.98z"></path></g></svg>